<svg xmlns="http://www.w3.org/2000/svg" width="696" height="493" viewBox="0 0 696 493" version="1.1"><path d="M 216.330 44.750 C 280.037 44.892, 383.987 44.892, 447.330 44.750 C 510.674 44.608, 458.550 44.492, 331.500 44.492 C 204.450 44.492, 152.624 44.608, 216.330 44.750 M 50 151.500 C 51.866 153.425, 53.617 155, 53.892 155 C 54.167 155, 52.866 153.425, 51 151.500 C 49.134 149.575, 47.383 148, 47.108 148 C 46.833 148, 48.134 149.575, 50 151.500 M 608.453 155.250 L 604.500 159.500 608.750 155.547 C 612.702 151.871, 613.460 151, 612.703 151 C 612.540 151, 610.627 152.912, 608.453 155.250 M 59.500 162 C 61.648 164.200, 63.631 166, 63.906 166 C 64.181 166, 62.648 164.200, 60.500 162 C 58.352 159.800, 56.369 158, 56.094 158 C 55.819 158, 57.352 159.800, 59.500 162 M 598.453 166.250 L 594.500 170.500 598.750 166.547 C 602.702 162.871, 603.460 162, 602.703 162 C 602.540 162, 600.627 163.912, 598.453 166.250 M 69.500 173 C 71.648 175.200, 73.631 177, 73.906 177 C 74.181 177, 72.648 175.200, 70.500 173 C 68.352 170.800, 66.369 169, 66.094 169 C 65.819 169, 67.352 170.800, 69.500 173 M 589.453 176.250 L 585.500 180.500 589.750 176.547 C 593.702 172.871, 594.460 172, 593.703 172 C 593.540 172, 591.627 173.912, 589.453 176.250 M 79.500 184 C 81.648 186.200, 83.631 188, 83.906 188 C 84.181 188, 82.648 186.200, 80.500 184 C 78.352 181.800, 76.369 180, 76.094 180 C 75.819 180, 77.352 181.800, 79.500 184 M 579.453 187.250 L 575.500 191.500 579.750 187.547 C 583.702 183.871, 584.460 183, 583.703 183 C 583.540 183, 581.627 184.912, 579.453 187.250 M 88.500 194 C 90.648 196.200, 92.631 198, 92.906 198 C 93.181 198, 91.648 196.200, 89.500 194 C 87.352 191.800, 85.369 190, 85.094 190 C 84.819 190, 86.352 191.800, 88.500 194 M 569.453 198.250 L 565.500 202.500 569.750 198.547 C 573.702 194.871, 574.460 194, 573.703 194 C 573.540 194, 571.627 195.912, 569.453 198.250 M 99 205.500 C 100.866 207.425, 102.617 209, 102.892 209 C 103.167 209, 101.866 207.425, 100 205.500 C 98.134 203.575, 96.383 202, 96.108 202 C 95.833 202, 97.134 203.575, 99 205.500 M 560 208.500 C 557.571 210.975, 555.809 213, 556.084 213 C 556.359 213, 558.571 210.975, 561 208.500 C 563.429 206.025, 565.191 204, 564.916 204 C 564.641 204, 562.429 206.025, 560 208.500 M 108.500 216 C 110.648 218.200, 112.631 220, 112.906 220 C 113.181 220, 111.648 218.200, 109.500 216 C 107.352 213.800, 105.369 212, 105.094 212 C 104.819 212, 106.352 213.800, 108.500 216 M 550.453 219.250 L 546.500 223.500 550.750 219.547 C 554.702 215.871, 555.460 215, 554.703 215 C 554.540 215, 552.627 216.912, 550.453 219.250 M 117.500 226 C 119.648 228.200, 121.631 230, 121.906 230 C 122.181 230, 120.648 228.200, 118.500 226 C 116.352 223.800, 114.369 222, 114.094 222 C 113.819 222, 115.352 223.800, 117.500 226 M 541 229.500 C 538.571 231.975, 536.809 234, 537.084 234 C 537.359 234, 539.571 231.975, 542 229.500 C 544.429 227.025, 546.191 225, 545.916 225 C 545.641 225, 543.429 227.025, 541 229.500 M 126.958 236.250 C 131.102 240.665, 132 241.459, 132 240.708 C 132 240.548, 129.863 238.410, 127.250 235.958 L 122.500 231.500 126.958 236.250 M 531 240.500 C 528.571 242.975, 526.809 245, 527.084 245 C 527.359 245, 529.571 242.975, 532 240.500 C 534.429 238.025, 536.191 236, 535.916 236 C 535.641 236, 533.429 238.025, 531 240.500 M 137.500 248 C 139.648 250.200, 141.631 252, 141.906 252 C 142.181 252, 140.648 250.200, 138.500 248 C 136.352 245.800, 134.369 244, 134.094 244 C 133.819 244, 135.352 245.800, 137.500 248 M 521.453 251.250 L 517.500 255.500 521.750 251.547 C 525.702 247.871, 526.460 247, 525.703 247 C 525.540 247, 523.627 248.912, 521.453 251.250 M 146.500 258 C 148.648 260.200, 150.631 262, 150.906 262 C 151.181 262, 149.648 260.200, 147.500 258 C 145.352 255.800, 143.369 254, 143.094 254 C 142.819 254, 144.352 255.800, 146.500 258 M 511.453 262.250 L 507.500 266.500 511.750 262.547 C 515.702 258.871, 516.460 258, 515.703 258 C 515.540 258, 513.627 259.913, 511.453 262.250 M 156.500 269 C 158.648 271.200, 160.631 273, 160.906 273 C 161.181 273, 159.648 271.200, 157.500 269 C 155.352 266.800, 153.369 265, 153.094 265 C 152.819 265, 154.352 266.800, 156.500 269 M 501.453 273.250 L 497.500 277.500 501.750 273.547 C 505.702 269.871, 506.460 269, 505.703 269 C 505.540 269, 503.627 270.913, 501.453 273.250 M 166.500 280 C 168.648 282.200, 170.631 284, 170.906 284 C 171.181 284, 169.648 282.200, 167.500 280 C 165.352 277.800, 163.369 276, 163.094 276 C 162.819 276, 164.352 277.800, 166.500 280 M 492.453 283.250 L 488.500 287.500 492.750 283.547 C 496.702 279.871, 497.460 279, 496.703 279 C 496.540 279, 494.627 280.913, 492.453 283.250 M 176.500 291 C 178.648 293.200, 180.631 295, 180.906 295 C 181.181 295, 179.648 293.200, 177.500 291 C 175.352 288.800, 173.369 287, 173.094 287 C 172.819 287, 174.352 288.800, 176.500 291 M 482.453 294.250 L 478.500 298.500 482.750 294.547 C 486.702 290.871, 487.460 290, 486.703 290 C 486.540 290, 484.627 291.913, 482.453 294.250 M 185.500 301 C 187.648 303.200, 189.631 305, 189.906 305 C 190.181 305, 188.648 303.200, 186.500 301 C 184.352 298.800, 182.369 297, 182.094 297 C 181.819 297, 183.352 298.800, 185.500 301 M 473 304.500 C 470.571 306.975, 468.809 309, 469.084 309 C 469.359 309, 471.571 306.975, 474 304.500 C 476.429 302.025, 478.191 300, 477.916 300 C 477.641 300, 475.429 302.025, 473 304.500 M 194.958 311.250 C 199.102 315.665, 200 316.459, 200 315.708 C 200 315.548, 197.863 313.410, 195.250 310.958 L 190.500 306.500 194.958 311.250 M 463.453 315.250 L 459.500 319.500 463.750 315.547 C 467.702 311.871, 468.460 311, 467.703 311 C 467.540 311, 465.627 312.913, 463.453 315.250 M 204.958 322.250 C 207.410 324.863, 209.548 327, 209.708 327 C 210.459 327, 209.665 326.102, 205.250 321.958 L 200.500 317.500 204.958 322.250 M 453.453 326.250 L 449.500 330.500 453.750 326.547 C 457.702 322.871, 458.460 322, 457.703 322 C 457.540 322, 455.627 323.913, 453.453 326.250 M 214.500 333 C 216.648 335.200, 218.631 337, 218.906 337 C 219.181 337, 217.648 335.200, 215.500 333 C 213.352 330.800, 211.369 329, 211.094 329 C 210.819 329, 212.352 330.800, 214.500 333 M 444 336.500 C 441.571 338.975, 439.809 341, 440.084 341 C 440.359 341, 442.571 338.975, 445 336.500 C 447.429 334.025, 449.191 332, 448.916 332 C 448.641 332, 446.429 334.025, 444 336.500 M 224.500 344 C 226.648 346.200, 228.631 348, 228.906 348 C 229.181 348, 227.648 346.200, 225.500 344 C 223.352 341.800, 221.369 340, 221.094 340 C 220.819 340, 222.352 341.800, 224.500 344 M 434.453 347.250 L 430.500 351.500 434.750 347.547 C 438.702 343.871, 439.460 343, 438.703 343 C 438.540 343, 436.627 344.913, 434.453 347.250 M 234.500 355 C 236.648 357.200, 238.631 359, 238.906 359 C 239.181 359, 237.648 357.200, 235.500 355 C 233.352 352.800, 231.369 351, 231.094 351 C 230.819 351, 232.352 352.800, 234.500 355 M 424.453 358.250 L 420.500 362.500 424.750 358.547 C 428.702 354.871, 429.460 354, 428.703 354 C 428.540 354, 426.627 355.913, 424.453 358.250 M 244.500 366 C 246.648 368.200, 248.631 370, 248.906 370 C 249.181 370, 247.648 368.200, 245.500 366 C 243.352 363.800, 241.369 362, 241.094 362 C 240.819 362, 242.352 363.800, 244.500 366 M 415 368.500 C 412.571 370.975, 410.809 373, 411.084 373 C 411.359 373, 413.571 370.975, 416 368.500 C 418.429 366.025, 420.191 364, 419.916 364 C 419.641 364, 417.429 366.025, 415 368.500 M 253.500 376 C 255.648 378.200, 257.631 380, 257.906 380 C 258.181 380, 256.648 378.200, 254.500 376 C 252.352 373.800, 250.369 372, 250.094 372 C 249.819 372, 251.352 373.800, 253.500 376 M 405 379.500 C 402.571 381.975, 400.809 384, 401.084 384 C 401.359 384, 403.571 381.975, 406 379.500 C 408.429 377.025, 410.191 375, 409.916 375 C 409.641 375, 407.429 377.025, 405 379.500 M 263.500 387 C 265.648 389.200, 267.631 391, 267.906 391 C 268.181 391, 266.648 389.200, 264.500 387 C 262.352 384.800, 260.369 383, 260.094 383 C 259.819 383, 261.352 384.800, 263.500 387 M 396 389.500 C 393.571 391.975, 391.809 394, 392.084 394 C 392.359 394, 394.571 391.975, 397 389.500 C 399.429 387.025, 401.191 385, 400.916 385 C 400.641 385, 398.429 387.025, 396 389.500 M 275 399.500 C 278.543 403.075, 281.667 406, 281.942 406 C 282.217 406, 279.543 403.075, 276 399.500 C 272.457 395.925, 269.333 393, 269.058 393 C 268.783 393, 271.457 395.925, 275 399.500 M 294 414.493 C 294 415.170, 302.123 419.211, 302.575 418.758 C 302.785 418.549, 300.941 417.398, 298.478 416.202 C 296.015 415.005, 294 414.236, 294 414.493 M 363 416 C 361.075 417.054, 359.860 417.935, 360.300 417.958 C 361.359 418.014, 367 415.081, 367 414.474 C 367 413.820, 366.941 413.842, 363 416 M 327.250 424.716 C 328.762 424.945, 331.238 424.945, 332.750 424.716 C 334.262 424.487, 333.025 424.300, 330 424.300 C 326.975 424.300, 325.738 424.487, 327.250 424.716" stroke="none" fill="#343434" fill-rule="evenodd"/><path d="M 89.814 46.078 C 64.866 49.738, 47.050 60.853, 38.648 78 C 31.785 92.006, 31.417 107.933, 37.535 126.131 C 43.547 144.012, 38.552 138.070, 161.609 273.717 C 224.368 342.898, 277.693 401.316, 280.109 403.534 C 304.390 425.842, 335.787 430.038, 365.060 414.887 C 375.677 409.393, 386.184 400.529, 399.301 386 C 405.509 379.125, 456.883 322.425, 513.467 260 C 611.205 152.172, 616.534 146.100, 620.107 138.495 C 631.679 113.858, 632.445 91.561, 622.314 74.273 C 618.834 68.334, 612.207 61.737, 605.126 57.160 C 597.949 52.521, 583.380 47.544, 572.678 46.074 C 563.219 44.775, 98.669 44.779, 89.814 46.078" stroke="none" fill="#fbfbfb" fill-rule="evenodd"/></svg>