<?xml version="1.0" encoding="UTF-8"?>
<!DOCTYPE svg PUBLIC "-//W3C//DTD SVG 1.1//EN" "http://www.w3.org/Graphics/SVG/1.1/DTD/svg11.dtd">
<svg xmlns="http://www.w3.org/2000/svg" version="1.1" width="2561px" height="2498px" style="shape-rendering:geometricPrecision; text-rendering:geometricPrecision; image-rendering:optimizeQuality; fill-rule:evenodd; clip-rule:evenodd" xmlns:xlink="http://www.w3.org/1999/xlink">
<g><path style="opacity:0.997" fill="#fefffe" d="M 2560.5,1230.5 C 2560.5,1264.17 2560.5,1297.83 2560.5,1331.5C 2543.06,1660.27 2420.89,1942.6 2194,2178.5C 2048.2,2326.03 1876.37,2432.36 1678.5,2497.5C 1668.5,2497.5 1658.5,2497.5 1648.5,2497.5C 1619.2,2491.36 1602.37,2473.36 1598,2443.5C 1598.34,2313.83 1598.34,2184.17 1598,2054.5C 1596,2003.16 1583.67,1954.5 1561,1908.5C 1548.41,1884.74 1532.24,1863.74 1512.5,1845.5C 1576.46,1838.28 1639.46,1826.11 1701.5,1809C 1782.33,1786.76 1854.66,1749.09 1918.5,1696C 1988.51,1633.21 2036.67,1556.38 2063,1465.5C 2086.05,1384.81 2097.21,1302.47 2096.5,1218.5C 2097.47,1084.71 2053.47,968.547 1964.5,870C 1979.91,830.305 1988.41,789.138 1990,746.5C 1992.72,672.495 1980.22,601.162 1952.5,532.5C 1949.31,531.135 1945.98,530.301 1942.5,530C 1909.52,527.855 1877.18,531.521 1845.5,541C 1799,554.833 1754.34,573.167 1711.5,596C 1673.35,616.516 1636.51,639.016 1601,663.5C 1412.28,612.576 1222.11,606.742 1030.5,646C 1006.92,650.894 983.589,656.728 960.5,663.5C 896.267,618.374 827.267,581.541 753.5,553C 716.113,538.689 677.446,530.856 637.5,529.5C 631.167,529.667 624.833,529.833 618.5,530C 614.854,530.356 611.354,531.189 608,532.5C 574.771,615.33 563.771,700.997 575,789.5C 578.89,817.395 586.057,844.395 596.5,870.5C 515.046,959.251 471.213,1064.25 465,1185.5C 461.098,1278.48 471.431,1369.81 496,1459.5C 541.535,1613.7 638.369,1721.86 786.5,1784C 847.497,1808.44 910.497,1825.77 975.5,1836C 999.484,1839.66 1023.48,1843.16 1047.5,1846.5C 1024.79,1867.24 1006.96,1891.58 994,1919.5C 979.693,1951.06 970.527,1984.06 966.5,2018.5C 936.283,2031.52 904.95,2041.02 872.5,2047C 756.819,2065.14 666.986,2025.64 603,1928.5C 577.595,1881.09 542.428,1842.59 497.5,1813C 465.988,1793.33 431.654,1782.16 394.5,1779.5C 381.184,1779.85 368.184,1782.02 355.5,1786C 341.932,1789.64 337.099,1798.14 341,1811.5C 344.354,1818.21 348.687,1824.21 354,1829.5C 369.838,1843.83 387.004,1856.33 405.5,1867C 444.647,1897.8 476.147,1934.97 500,1978.5C 512.959,2002.42 524.293,2027.09 534,2052.5C 561.945,2109.11 604.445,2150.95 661.5,2178C 713.214,2200.88 767.381,2211.71 824,2210.5C 870.461,2210.47 916.294,2205.13 961.5,2194.5C 962.979,2277.83 963.479,2361.16 963,2444.5C 957.441,2473.56 940.274,2491.22 911.5,2497.5C 901.833,2497.5 892.167,2497.5 882.5,2497.5C 691.37,2434.65 524.37,2333.15 381.5,2193C 167.333,1978.47 42.5,1719.63 7,1416.5C -22.2423,1116.82 43.4243,840.158 204,586.5C 364.223,343.318 581.39,171.818 855.5,72C 1091.86,-9.06489 1331.86,-21.7316 1575.5,34C 1843.49,100.009 2067.99,236.175 2249,442.5C 2441.68,669.033 2545.51,931.7 2560.5,1230.5 Z"/></g>
<g><path style="opacity:0.936" fill="#fefffe" d="M 458.5,1816.5 C 470.785,1815.23 479.952,1819.89 486,1830.5C 487.54,1840.13 483.373,1845.13 473.5,1845.5C 464.974,1844.82 458.14,1841.16 453,1834.5C 448.405,1826.43 450.238,1820.43 458.5,1816.5 Z"/></g>
<g><path style="opacity:0.944" fill="#fefffe" d="M 510.5,1860.5 C 528.138,1860.47 538.471,1869.14 541.5,1886.5C 541.5,1895.17 537.167,1899.5 528.5,1899.5C 513.567,1897.23 504.9,1888.57 502.5,1873.5C 502.907,1867.67 505.573,1863.34 510.5,1860.5 Z"/></g>
<g><path style="opacity:0.95" fill="#fefffe" d="M 563.5,1925.5 C 575.339,1925.84 584.172,1931.17 590,1941.5C 596.829,1952.13 595.995,1961.96 587.5,1971C 579.426,1973.84 572.092,1972.51 565.5,1967C 553.305,1957.05 550.138,1944.88 556,1930.5C 558.17,1928.18 560.67,1926.51 563.5,1925.5 Z"/></g>
<g><path style="opacity:0.955" fill="#fefffe" d="M 623.5,1998.5 C 639.785,1998.56 651.618,2005.9 659,2020.5C 664.759,2034.99 660.093,2043.66 645,2046.5C 629.178,2044.25 618.512,2035.58 613,2020.5C 610.409,2010.02 613.909,2002.69 623.5,1998.5 Z"/></g>
<g><path style="opacity:0.955" fill="#fefffe" d="M 712.5,2054.5 C 727.524,2052.56 740.024,2057.23 750,2068.5C 755.969,2079.26 753.469,2087.43 742.5,2093C 724.972,2097.94 710.805,2093.1 700,2078.5C 695.926,2066.32 700.092,2058.32 712.5,2054.5 Z"/></g>
<g><path style="opacity:0.955" fill="#fefffe" d="M 924.5,2058.5 C 936.965,2056.4 946.798,2060.4 954,2070.5C 956.075,2075.81 955.409,2080.81 952,2085.5C 938.914,2099.23 923.747,2102.06 906.5,2094C 897.007,2084.4 897.341,2075.06 907.5,2066C 912.782,2062.35 918.448,2059.85 924.5,2058.5 Z"/></g>
<g><path style="opacity:0.955" fill="#fefffe" d="M 829.5,2070.5 C 837.551,2070.85 844.885,2073.35 851.5,2078C 860.882,2089.9 858.882,2099.57 845.5,2107C 829.918,2113.48 816.085,2110.98 804,2099.5C 799.237,2088.83 802.07,2080.67 812.5,2075C 818.031,2072.46 823.698,2070.96 829.5,2070.5 Z"/></g>
</svg>
